<svg xmlns="http://www.w3.org/2000/svg" viewBox="0 0 44.766227 35" height="35" width="44.766"><path d="M.372 34.44C-.086 32.156.098 1.21.98.746c1.895-.997 41.348-1.16 42.842.518 1.154 1.296 1.155 31.042.277 32.938-.452.978-43.563 1.055-43.727.236zm36.924-7.924c-.027-2.428-.507-1.747-15.197-1.755C8.25 24.754 8.42 24.37 8.414 26.846c-.007 2.426.358 2.04 14.117 2.097 14.66.06 14.794.091 14.765-2.427zm-.06-8.63c.034-2.382-.546-1.907-14.964-1.875-13.49.03-13.56-.6-13.55 1.875.01 2.517-.119 1.971 13.55 2.134 14.464.173 14.93.296 14.964-2.134zm.057-9.568c.055-2.383-.632-1.672-14.849-1.747C9.046 6.499 8.69 5.713 8.673 8.187c-.017 2.518-.115 2.06 13.599 2.047 14.134-.014 14.96.737 15.02-1.916z" fill="#fded05"/></svg>